<svg width="709" height="516.05281" xmlns="http://www.w3.org/2000/svg">
 <g>
  <title>Layer 1</title>
  <path id="svg_18" fill="#f2f2f2" d="m315.97949,303.03117c-1.12549,0.05179 -2.07983,-0.8186 -2.13159,-1.94409c-0.02765,-0.60092 0.2113,-1.18341 0.65308,-1.59177l0.13977,-0.55573l-0.05554,-0.13339c-1.17957,-2.78619 -4.39453,-4.08862 -7.18073,-2.90903c-1.32373,0.56042 -2.37415,1.61868 -2.92474,2.94656c-1.65277,3.98071 -3.75708,7.96823 -4.27521,12.17715c-0.22821,1.86044 -0.13196,3.74637 0.28448,5.57391c-3.88196,-8.46805 -5.89777,-17.67178 -5.91077,-26.98721c-0.00085,-2.33759 0.12903,-4.6734 0.38898,-6.99649c0.21484,-1.90448 0.51294,-3.79535 0.89423,-5.6727c2.08063,-10.18625 6.54791,-19.73364 13.03491,-27.85815c3.13965,-1.7131 5.67877,-4.34744 7.27515,-7.54807c0.57831,-1.15051 0.98706,-2.37869 1.2135,-3.6463c-0.35419,0.04645 -0.71417,0.0755 -1.0683,0.09869c-0.11035,0.00577 -0.22644,0.0116 -0.33679,0.01743l-0.04163,0.00186c-1.11517,0.05005 -2.05975,-0.81342 -2.1098,-1.92856c-0.02216,-0.49451 0.13788,-0.97998 0.44983,-1.36432c0.15289,-0.1882 0.30591,-0.37628 0.45905,-0.5643c0.2323,-0.29034 0.47034,-0.57483 0.70258,-0.86511c0.02679,-0.02759 0.052,-0.05667 0.0755,-0.08713c0.26709,-0.33099 0.53418,-0.6561 0.80127,-0.98706c-0.48755,-0.75668 -1.14325,-1.39056 -1.91608,-1.85214c-2.6767,-1.56766 -6.36945,-0.48193 -8.30292,1.93927c-1.83405,2.55737 -2.43219,5.79935 -1.63153,8.84283c0.66235,2.57404 1.75793,5.01654 3.23993,7.2229c-0.1452,0.18582 -0.29614,0.36581 -0.44128,0.55164c-2.65344,3.41202 -4.96619,7.07584 -6.90491,10.939c0.4715,-4.32785 -0.09125,-8.70581 -1.64185,-12.77374c-1.57153,-3.79117 -4.51715,-6.9841 -7.11108,-10.26157c-1.9162,-2.45905 -5.46307,-2.89908 -7.92212,-0.98285c-1.18005,0.91959 -1.94684,2.27002 -2.13177,3.75461l-0.01556,0.1449c0.38531,0.21732 0.76245,0.44803 1.13147,0.69211c1.27075,0.84903 1.61261,2.56741 0.76355,3.83813c-0.43085,0.64493 -1.11267,1.07941 -1.87921,1.19757l-0.0564,0.0087c0.13727,1.38861 0.37988,2.7648 0.72577,4.11664c2.02612,7.62918 7.14148,14.06812 14.11487,17.767c0.22644,0.11612 0.44714,0.23224 0.67358,0.34256c-1.94788,5.52005 -3.16968,11.26996 -3.6347,17.1051c-0.26331,3.44257 -0.24774,6.90079 0.04645,10.34085l-0.01746,-0.12195c-0.74329,-3.82529 -2.78387,-7.27686 -5.77722,-9.77185c-4.44586,-3.65213 -10.72699,-4.99701 -15.52332,-7.93259c-1.47601,-0.94769 -3.4408,-0.51944 -4.38849,0.95657c-0.40607,0.63235 -0.57471,1.38821 -0.47595,2.13321l0.01959,0.12817c0.71497,0.2912 1.41113,0.62665 2.08441,1.00443c0.38531,0.21744 0.76245,0.44809 1.13147,0.69211c1.27075,0.84903 1.61261,2.56744 0.76355,3.83817c-0.43085,0.64493 -1.11267,1.07938 -1.87921,1.19757l-0.05646,0.00867c-0.04065,0.00583 -0.0755,0.01166 -0.11609,0.01746c1.22168,2.91693 2.93628,5.60181 5.06879,7.93704c5.32428,5.7131 12.76788,8.97916 20.57721,9.02866l0.00586,0c1.04889,4.55789 2.5686,8.99445 4.53467,13.23816l16.19928,0c0.05811,-0.17999 0.11035,-0.36581 0.1626,-0.54581c-1.49945,0.09427 -3.00476,0.00461 -4.48242,-0.267c1.2019,-1.47482 2.40375,-2.96124 3.60565,-4.436c0.02679,-0.02756 0.052,-0.05664 0.0755,-0.08707c0.60962,-0.75479 1.2251,-1.50381 1.83478,-2.25858l0.00031,-0.00092c0.03247,-2.31369 -0.23303,-4.62195 -0.78998,-6.86786l-0.00049,-0.00031l-0.00002,0.00002z"/>
  <g id="svg_19" opacity="0.38">
   <path id="svg_20" fill="#ffb8b8" d="m285.2207,279.49711c-2.50269,-2.04874 -2.87067,-5.73837 -0.82196,-8.24106c0.21844,-0.26685 0.46008,-0.51389 0.72198,-0.73822l-13.23828,-34.60919l10.57983,2.24091l11.23297,33.28967c1.94733,2.60431 1.41479,6.29413 -1.18951,8.24149c-2.17908,1.62943 -5.1908,1.5535 -7.28503,-0.18359l0,-0.00001z"/>
   <path id="svg_21" fill="#2f2e41" d="m290.66724,241.59211l-11.88,-49.44l-5.10999,-14.38c-0.00543,-0.00537 -0.00897,-0.01239 -0.01001,-0.01999c-0.83197,-2.34897 -2.57208,-4.26562 -4.83002,-5.32001c-2.25897,-1.08163 -4.85925,-1.20425 -7.20999,-0.34c-0.20071,0.06964 -0.39764,0.14975 -0.59,0.23999c-0.41003,0.18747 -0.80753,0.40128 -1.19,0.64001c-2.20493,1.39001 -3.73615,3.63071 -4.23001,6.19l-0.89999,4.72l-0.38,2.01001l14.03003,49.04001l0,0.01999l4.88,17.07999l2.26001,7.88l0,0.01001l2.62,9.17001l0.06,0.19l6.28998,-0.42001l0.01001,0l0.95001,-0.07001l7.20001,-0.48001l1.03998,-0.07001l-3.01001,-26.64999l-0.00001,0.00001z"/>
   <path id="svg_22" fill="#2f2e41" d="m242.43661,159.04686l26.46164,53.5145l16.74023,56.90335c-35.26788,6.87714 -79.52014,21.58875 -82.70544,0.48938c1.96277,-58.82568 8.14633,-77.58966 20.91101,-103.09192l18.59256,-7.81531z"/>
   <path id="svg_23" fill="#2f2e41" d="m277.81726,317.62214l-21.73001,0l-8.81,-29.76999l-6.20001,29.38998c-0.01999,0.13 -0.03,0.25 -0.04999,0.38l-23.16,0c0.75,-9.20001 2.12,-25.20001 2.76999,-27.47c0.92001,-3.22 0,-3.22 -1.84,-5.06c-0.41,-0.41 -0.54999,-2.04999 -0.51001,-4.34c0.10999,-7.89001 2.26001,-23.51999 2.26001,-23.51999l2.54999,-4.72l0.88,-1.64001l45.41998,-1.60001l0.39001,-0.01001l0.84003,3.66l1.03003,4.51001l1.81,7.91l1.66998,6.31l0.09003,0.32001l0,1.87c-0.28442,0.65152 -0.41449,1.35995 -0.38,2.07001c-0.00006,0.63998 1.43994,20.58002 2.96997,41.70999l0,0.00001z"/>
   <path id="svg_24" fill="#6c63ff" d="m239.33566,166.98292l3.11841,-7.46091l9.65152,0.16946l10.064,14.23587l10.56314,44.42258s3.79401,32.45065 0,34.16373s-49.73508,0.80151 -49.73508,0.80151c2.12711,-17.52463 3.7124,-35.35199 5.38318,-46.00183c5.52185,-35.19739 8.12796,-27.79028 10.95483,-40.33041z"/>
   <path id="svg_25" fill="#2f2e41" d="m252.10559,159.69148s20.79034,12.01813 21.60358,18.29156s3.53577,83.0571 3.53577,83.0571l-7.35217,-4.75076l-2.0094,-27.98499c1.40137,-24.86685 -2.01871,-43.40192 -8.97275,-57.29605l-6.80502,-11.31686l-0.00001,0z"/>
   <circle id="svg_26" transform="rotate(-80.7825 67.4084 363.282)" fill="#ffb8b8" r="14.16937" cy="505.30856" cx="314.60609"/>
   <path id="svg_27" fill="#2f2e41" d="m229.73886,141.18507c0.63272,2.87088 1.77405,5.60538 3.37006,8.07419c0.42368,0.8418 1.05667,1.56052 1.83823,2.08713c0.81647,0.52396 1.89072,0.38965 2.5531,-0.31915l0.3447,-0.28085c-0.67599,-0.41653 -1.27963,-0.9404 -1.7872,-1.55099c-0.50983,-0.6217 -0.68808,-1.45129 -0.4787,-2.22757c0.25439,-0.78418 1.08334,-1.22684 1.87653,-1.00211c0.8298,0.32553 1.33401,1.52548 2.20206,1.34039c0.70212,-0.1532 0.84891,-1.07867 0.84891,-1.8063c-0.02551,-3.80414 1.81271,-9.2103 3.23605,-9.04434c1.43796,0.07861 2.87784,-0.11411 4.24451,-0.56808c1.36841,-0.45474 2.81216,-0.63904 4.25092,-0.54257c0.10211,0.01279 0.20425,0.03195 0.31274,0.05109c0.23065,-0.72275 0.54782,-1.41498 0.94464,-2.06161c-0.04474,0.78055 -0.0062,1.56366 0.1149,2.33606c1.1449,0.47186 2.32785,0.84555 3.53607,1.117c1.31485,0.18512 4.20621,4.11688 4.34027,3.71475c0.23065,-0.72275 0.54782,-1.41498 0.94464,-2.06161c-0.04474,0.78055 -0.0062,1.56366 0.1149,2.33606c0.00638,0.03192 0.00638,0.05746 0.01276,0.08936c0.63828,-0.84891 1.02762,-1.88293 0.81061,-1.09146c2.13821,-4.8381 1.30847,-8.30392 -2.05527,-12.38251c-0.65558,-0.87698 -1.52304,-1.57315 -2.52115,-2.02335c-1.01657,-0.44653 -2.19244,-0.33038 -3.10199,0.3064c-2.79385,-2.56146 -6.75687,-3.40686 -10.35278,-2.20844c-3.50412,1.21912 -6.20401,1.93399 -6.74017,5.61047c-2.98386,-0.32629 -5.89026,1.08841 -7.47421,3.63812c-1.51031,2.54871 -2.00485,5.57291 -1.3851,8.46994l-0.00003,-0.00002z"/>
   <path id="svg_28" fill="#ffb8b8" d="m190.03381,276.00099c-1.20316,-3.00217 0.25528,-6.41125 3.25745,-7.61441c0.32013,-0.1283 0.65097,-0.22806 0.98865,-0.29813l5.10889,-36.70081l8.18457,7.06876l-6.22836,34.57733c0.44858,3.22076 -1.79874,6.19534 -5.0195,6.64392c-2.69479,0.37531 -5.29581,-1.14465 -6.29166,-3.67667l-0.00003,0l-0.00001,0.00001z"/>
   <path id="svg_29" fill="#2f2e41" d="m235.12726,178.03215l-0.39001,-3.56c-0.36758,-3.28781 -2.43234,-6.14203 -5.44,-7.51999c-1.14224,-0.52991 -2.38123,-0.81924 -3.64001,-0.85001l-0.01001,0c-3.78793,-0.08838 -7.25974,2.10269 -8.81,5.56l-6.23999,13.95001l-15.75,48.35001l-5.09,26.30005l5.5,0.81l7.97,1.17001l0.06,0.01001l1.82999,0.26999l25.57001,-68.44l0.01001,-0.01999l4.78,-12.79001l-0.34998,-3.24008l-0.00001,0z"/>
  </g>
  <path id="svg_30" fill="#e6e6e6" d="m330.54724,318.62214l-164,0c-3.86414,-0.00452 -6.99548,-3.13586 -7,-7l0,-223c0.00433,-3.8642 3.1358,-6.99567 7,-7l164,0c3.8642,0.00433 6.99567,3.1358 7,7l0,223c-0.00452,3.86414 -3.13586,6.99548 -7,7zm-164,-235c-2.76007,0.00323 -4.99677,2.23993 -5,5l0,223c0.00323,2.76007 2.23993,4.99677 5,5l164,0c2.76007,-0.00323 4.99677,-2.23993 5,-5l0,-223c-0.00323,-2.76007 -2.23993,-4.99677 -5,-5l-164,0z"/>
  <path id="svg_31" fill="#e6e6e6" d="m78.90319,248.62214l-53,0c-7.1797,0 -13,-5.82031 -13,-13s5.8203,-13 13,-13l53,0c7.17969,0 13,5.82031 13,13s-5.82031,13 -13,13z"/>
  <path id="svg_32" fill="#e6e6e6" d="m92,299.62214l-53,0c-7.17969,0 -13,-5.82031 -13,-13s5.82031,-13 13,-13l53,0c7.17969,0 13,5.82031 13,13s-5.82031,13 -13,13z"/>
  <rect id="svg_33" transform="rotate(-89.1724 -123.038 458.821)" fill="#e6e6e6" height="102.43015" width="2.00021" y="699.43065" x="47.19055"/>
  <path id="svg_34" fill="#e6e6e6" d="m226.73572,297.14167c-1.91428,0.0014 -3.66187,-1.08871 -4.50244,-2.80859l0,0c-1.21017,-2.48199 -0.17914,-5.4751 2.30286,-6.68527c2.48203,-1.21017 5.47513,-0.17917 6.6853,2.30286c1.21017,2.48199 0.17914,5.4751 -2.30289,6.68527c-0.67996,0.33154 -1.42633,0.50449 -2.18283,0.50574l0,-0.00001zm-0.01025,-8.00101c-1.65723,0.00162 -2.99933,1.34637 -2.99771,3.00357c0.00043,0.45462 0.10419,0.9032 0.30338,1.31186l0,0c0.72766,1.48721 2.52316,2.103 4.01041,1.37534c1.48721,-0.72766 2.10297,-2.52316 1.37534,-4.01041c-0.50293,-1.02786 -1.54709,-1.67981 -2.69141,-1.68036l-0.00001,0z"/>
  <rect id="svg_35" transform="rotate(-89.1724 -91.7262 384.589)" fill="#e6e6e6" height="102.43012" width="2.00021" y="572.19834" x="56.50279"/>
  <path id="svg_36" fill="#e6e6e6" d="m204.73572,244.14167c-1.91418,0.00146 -3.66171,-1.08844 -4.50244,-2.80811l0,0c-1.21155,-2.48257 -0.18118,-5.47726 2.30139,-6.68881s5.47723,-0.18121 6.68881,2.30136c1.21155,2.48257 0.18118,5.47726 -2.30139,6.68884c-0.681,0.33234 -1.42859,0.50562 -2.18637,0.50671l0,0.00001zm-2.70459,-3.68506c0.72629,1.48862 2.52185,2.10663 4.0105,1.38031c1.48862,-0.72629 2.10663,-2.52185 1.38031,-4.01047c-0.72629,-1.48865 -2.52185,-2.10663 -4.0105,-1.38034c-0.71457,0.34866 -1.26144,0.96677 -1.52045,1.71851c-0.25891,0.75238 -0.2085,1.57675 0.14014,2.29199z"/>
  <g id="svg_45">
   <rect transform="rotate(-89.1724 325.693 920.702)" id="svg_52" fill="#3f3d56" height="102.42963" width="2.00018" y="1101.49565" x="890.79671"/>
   <g id="svg_16">
    <path id="svg_1" fill="#f2f2f2" d="m530.11499,462.0312c1.12549,0.05182 2.07983,-0.8186 2.13165,-1.94403c0.02765,-0.60095 -0.21136,-1.18353 -0.65314,-1.59186l-0.13977,-0.55573l0.05554,-0.13342c1.17957,-2.78619 4.39453,-4.08862 7.18073,-2.90906c1.32373,0.56049 2.37415,1.61871 2.92474,2.94659c1.65277,3.98071 3.75708,7.9682 4.27521,12.17719c0.22821,1.86041 0.13196,3.7464 -0.28448,5.57391c3.88196,-8.46808 5.89777,-17.67181 5.91077,-26.98724c0.00085,-2.33759 -0.12903,-4.6734 -0.38898,-6.99649c-0.21484,-1.90445 -0.51294,-3.79535 -0.89423,-5.6727c-2.08069,-10.18625 -6.54791,-19.73364 -13.03491,-27.85815c-3.13971,-1.7131 -5.67883,-4.34744 -7.27521,-7.54807c-0.57831,-1.15051 -0.98706,-2.37869 -1.2135,-3.6463c0.35419,0.04645 0.71417,0.0755 1.0683,0.09869c0.11035,0.00577 0.22644,0.0116 0.33679,0.01743l0.04163,0.00186c1.11517,0.05005 2.05975,-0.81342 2.1098,-1.92856c0.02216,-0.49451 -0.13788,-0.97998 -0.44983,-1.36432c-0.15295,-0.18817 -0.30591,-0.37628 -0.45898,-0.5643c-0.2323,-0.29034 -0.47034,-0.57483 -0.70258,-0.86511c-0.02679,-0.02759 -0.052,-0.05667 -0.0755,-0.08713c-0.26709,-0.33099 -0.53418,-0.6561 -0.80127,-0.98706c0.48755,-0.75668 1.14325,-1.39056 1.91608,-1.85214c2.67664,-1.56766 6.36945,-0.48193 8.30292,1.93927c1.83405,2.55737 2.43219,5.79935 1.63153,8.84283c-0.66235,2.57404 -1.75793,5.01654 -3.23993,7.2229c0.1452,0.18582 0.29614,0.36581 0.44128,0.55164c2.65344,3.41199 4.96619,7.07584 6.90491,10.939c-0.4715,-4.32785 0.09125,-8.70581 1.64185,-12.77374c1.57153,-3.79117 4.51715,-6.9841 7.11115,-10.26157c1.9162,-2.45905 5.46307,-2.89908 7.92212,-0.98285c1.18005,0.91959 1.94684,2.27002 2.13177,3.75461l0.01556,0.1449c-0.38531,0.21735 -0.76239,0.44803 -1.13147,0.69211c-1.27075,0.84903 -1.61261,2.56741 -0.76355,3.83813c0.43085,0.64493 1.11267,1.07941 1.87921,1.19757l0.05646,0.0087c-0.13727,1.38861 -0.37988,2.7648 -0.72577,4.11664c-2.02612,7.62918 -7.14148,14.06812 -14.11487,17.767c-0.22644,0.11612 -0.44714,0.23224 -0.67358,0.34256c1.94781,5.52008 3.16962,11.26999 3.63458,17.10516c0.26331,3.44257 0.24774,6.90082 -0.04645,10.34088l0.0174,-0.12195c0.74329,-3.82526 2.78387,-7.27686 5.77722,-9.77185c4.44586,-3.65213 10.72699,-4.99701 15.52332,-7.93259c1.47601,-0.94769 3.4408,-0.51944 4.38849,0.95657c0.40607,0.63235 0.57471,1.38821 0.47595,2.13321l-0.01959,0.12817c-0.71497,0.2912 -1.41113,0.62665 -2.08441,1.00443c-0.38525,0.21741 -0.76245,0.44812 -1.13147,0.69211c-1.27075,0.84903 -1.61261,2.56744 -0.76355,3.83817c0.43085,0.64493 1.11267,1.07941 1.87921,1.19757l0.05646,0.00867c0.04065,0.0058 0.0755,0.01166 0.11609,0.01746c-1.22168,2.91693 -2.93628,5.60181 -5.06879,7.93707c-5.32428,5.71313 -12.76788,8.97919 -20.57721,9.02869l-0.00586,0c-1.04889,4.55792 -2.5686,8.99445 -4.53467,13.23816l-16.19922,0c-0.05811,-0.17999 -0.11035,-0.36584 -0.1626,-0.54584c1.49945,0.09424 3.00476,0.00458 4.48242,-0.26703c-1.2019,-1.47479 -2.40375,-2.96124 -3.60565,-4.43597c-0.02679,-0.02759 -0.052,-0.05664 -0.0755,-0.0871c-0.60968,-0.75476 -1.2251,-1.50378 -1.83478,-2.25861l-0.00031,-0.00092c-0.03247,-2.31372 0.23303,-4.62195 0.78998,-6.86786l0.00049,-0.00031l0,0.00001z"/>
    <path id="svg_2" fill="#2f2e41" d="m481.10889,313.41737c0,8.91721 4.46094,17.9913 13.37817,17.9913s21.22052,-6.4584 18.45264,-20.29788c-1.74884,-8.74399 -6.76752,-13.83945 -15.68469,-13.83945c-8.91718,-0.00006 -16.14606,7.2287 -16.14612,16.14587l0,0.00015l0,0.00001z"/>
    <path id="svg_3" fill="#a0616a" d="m518.5152,440.82106c-1.83575,-2.03625 -1.67328,-5.17517 0.36298,-7.01096c0.21716,-0.19577 0.45117,-0.37198 0.69934,-0.52655l-3.9035,-17.20386l8.58002,3.22827l2.39142,15.8421c1.29956,2.43094 0.38232,5.45511 -2.04858,6.75467c-2.03412,1.08737 -4.5484,0.63934 -6.08167,-1.08374l0,0.00006l-0.00001,0.00001z"/>
    <path id="svg_4" fill="#e6e6e6" d="m500.30316,379.84254l5.98859,0.60962s-1.56616,8.87137 0.88312,10.86963s1.46198,1.98877 1.44775,3.4697c0.15137,2.14999 1.20917,4.13437 2.90979,5.4585c1.96039,1.49988 6.03741,28.21201 6.03741,28.21201l8.88562,0.08524c-0.26501,-2.29749 -0.2428,-4.61905 0.06628,-6.91101c0.52679,-3.45078 3.18988,-12.14304 2.2168,-13.63345s-0.46082,-4.23111 -0.43243,-7.19299s-4.20868,0.31082 -4.16132,-4.62561s-5.38733,-35.91211 -4.85107,-40.35019s-4.8559,-8.4393 -4.8559,-8.4393l-4.93646,-0.04736l-9.19818,32.49524l0,-0.00003z"/>
    <path id="svg_5" fill="#a0616a" d="m436.72852,338.18318c-0.56439,2.53561 1.03363,5.04868 3.56927,5.61304c0.27032,0.06018 0.54547,0.09637 0.8222,0.10812l4.80414,16.00943l5.5708,-6.66409l-5.41614,-14.18115c-0.06189,-2.61102 -2.22876,-4.67749 -4.83978,-4.61557c-2.18481,0.05182 -4.04956,1.59396 -4.5105,3.73022l0.00001,0z"/>
    <path id="svg_6" fill="#e6e6e6" d="m487.44824,343.39759s-11.61395,-4.35455 -17.91052,19.49258l-8.35858,8.65683l-7.0224,-12.689l0.92853,-3.01016l-5.42712,-12.3038l-9.30499,5.34018l2.29053,8.4472l-0.38702,4.17581l2.22357,2.59723l3.63989,13.42337l2.27698,4.38553s2.87152,5.61523 7.88416,6.54016c1.33624,0.25027 2.70355,0.28909 4.05182,0.11499c3.20612,-0.5015 6.1778,-1.98511 8.50537,-4.24634c6.19751,-5.52667 12.05872,-11.41925 17.55219,-17.64615l-0.94238,-23.27844l-0.00003,0.00001z"/>
    <polygon id="svg_7" fill="#a0616a" points="503.0260009765625,383.32928466796875 503.8479919433594,387.2442932128906 504.5459899902344,401.685302734375 476.48199462890625,397.8852844238281 474.3269958496094,381.1632995605469 477.30499267578125,376.269287109375 503.0260009765625,383.32928466796875 "/>
    <circle id="svg_8" fill="#a0616a" r="13.28229" cy="317.89299" cx="493.92267"/>
    <path id="svg_9" fill="#e6e6e6" d="m516.17725,348.95213c-2.19196,-5.17029 -6.72803,-8.9776 -12.20001,-10.23999l-0.04999,-0.01001l-2.63,-3.54001l-10.66998,1.07001l-1.95001,4l-5.06,3.01001l-0.01001,0l-0.01001,0.01001l-2.65002,1.57996l-8.78998,10.29001l-0.01001,0.01001c-2.6084,1.74142 -4.37872,4.48566 -4.88995,7.57999c-0.13257,0.88342 -0.17609,1.77789 -0.13,2.67001c0.28998,5.47 3.71002,10.34 4.17999,10.98999l1.15002,6.47l0.22998,1.32999l2.07001,0.29999l29.15997,4.17001l0.81,0.12006l0.23999,0.03l0.84003,-2.17001l0,-0.01999l8.13,-21.26999l3.65002,-9.48999c0.00983,-2.36932 -0.47021,-4.71509 -1.41003,-6.89005l-0.00001,-0.00001z"/>
    <path id="svg_10" fill="#2f2e41" d="m507.82312,321.37504c-0.12036,-0.01901 -0.24078,-0.0444 -0.36115,-0.06342c-2.07184,-0.36746 -4.14368,-0.72855 -6.20917,-1.10245l-0.19012,-4.68216l-2.50262,4.19427c-5.70868,1.89441 -11.0498,0.8237 -16.07416,-1.53958c-1.65729,-0.78674 -3.26532,-1.67328 -4.81531,-2.65469c-1.08081,-6.59528 1.64587,-11.79291 8.6485,-12.45639c0.21747,-0.0206 0.37378,-0.20273 0.5639,-0.29785l0.00629,-0.0061l0,-0.00024c0.32312,-0.15204 0.65265,-0.29776 0.98212,-0.43079c5.26477,-2.0575 11.24384,-0.89819 15.35815,2.97784c4.15607,4.2283 5.8855,10.27515 4.59357,16.06155l0,0.00001z"/>
    <path id="svg_11" fill="#ccc" d="m520.90723,428.49217c-0.58759,-3.92361 -1.55206,-7.78146 -2.88,-11.51999l0,-0.01001c-1.11169,-3.16122 -2.49695,-6.21948 -4.14001,-9.14001c-0.00543,0.00012 -0.00989,-0.00418 -0.01001,-0.00958l0,-0.00043c-2.36548,-4.40219 -5.45154,-8.37717 -9.13,-11.76001l-0.39001,-0.41l-0.09998,0l-28.15997,-0.69l-0.28998,0l-0.32001,-0.01001s-0.12,0.35001 -0.34998,1.01001c-0.00879,0.04138 -0.02222,0.08163 -0.03998,0.12c-0.08002,0.26001 -0.17999,0.56 -0.29999,0.89001c-0.07001,0.22 -0.15002,0.45001 -0.22998,0.70001c-0.09003,0.26999 -0.19,0.54999 -0.28998,0.85001c-0.78003,2.32996 -1.91998,5.70999 -3.32001,9.89999c-0.21002,0.64001 -0.42999,1.29999 -0.65997,1.98999c-5.34003,16.07001 -13.92999,42.32999 -21.42999,67.22l26.59998,0c2.58002,-7.46002 5.32001,-18.09998 5.32001,-18.09998c1.07001,-1.27002 1.01001,-4.71997 1.01001,-4.71997l8.35999,-8.78003l6.02002,31.59998l25.26001,0l0.19,-35.16998l0,-0.29999c0.19696,-4.56589 -0.04419,-9.14014 -0.72015,-13.66l-0.00002,-0.00001z"/>
    <path id="svg_12" fill="#2f2e41" d="m502.73413,302.43657l0,0.01123c-0.00159,0.69522 0.0871,1.3877 0.26379,2.06006c0.02808,0.11789 0.06177,0.24136 0.10107,0.35925l0,0.00562c0.76337,2.43408 2.62262,4.37021 5.0238,5.23154c0.17401,0.06735 0.35364,0.12347 0.53326,0.17401c0.37842,0.10974 0.76514,0.18857 1.15631,0.23575c0.35144,0.0498 0.70599,0.07422 1.06091,0.073c0.2774,0.00116 0.55469,-0.01196 0.83075,-0.03931c0.646,-0.0654 1.28137,-0.21057 1.89166,-0.43222c0.09558,-0.02777 0.18927,-0.06149 0.28064,-0.10101c0.0459,-0.0163 0.09088,-0.03503 0.13477,-0.05612c4.15063,-1.73746 6.10693,-6.51068 4.36945,-10.66132c-0.052,-0.12424 -0.10706,-0.24716 -0.16516,-0.36868l-0.00562,-0.00562c-0.39905,-0.83554 -0.94037,-1.59531 -1.59979,-2.2453c-1.47064,-1.46506 -2.11871,-5.13666 -4.35278,-5.13666c-0.10681,-0.00186 -0.21362,0.00186 -0.32001,0.0112c-1.49872,0.05054 -4.26917,3.28433 -5.44794,4.04773c-0.87549,0.55307 -1.6344,1.27197 -2.23407,2.11621c-0.62622,0.86847 -1.07275,1.85315 -1.31354,2.89642c-0.13763,0.59833 -0.20728,1.21027 -0.20752,1.82422l0.00002,0z"/>
    <path id="svg_13" fill="#2f2e41" d="m512.67871,299.6024c1.26398,1.47159 3.24304,2.04361 5.02832,2.80942c6.39685,2.80627 10.99585,8.58957 12.28943,15.45407c0.49359,2.754 0.42902,5.60501 1.20868,8.28983c0.77502,2.68484 2.69403,5.319 5.44812,5.78491c1.86371,0.3183 3.73199,-0.40134 5.48499,-1.11179c0.96411,-0.38748 1.92834,-0.77652 2.89246,-1.16711c-1.00562,-2.52344 -2.00977,-5.04681 -3.01239,-7.57019c1.61133,2.38144 3.48529,4.57416 5.58655,6.53687c3.4552,-1.39319 6.91351,-2.78638 10.375,-4.17953c-8.51587,0.03229 -7.06274,-8.23447 -8.96802,-16.5289c-1.04718,-4.5578 -9.96442,-7.64401 -11.71283,-11.98038c-2.73077,-6.79852 -10.45581,-10.09607 -17.25433,-7.3653c-2.92963,1.17673 -5.34351,3.35971 -6.80786,6.15665c-1.74829,0.69656 -1.79901,3.4183 -0.55811,4.87146l-0.00001,-0.00001z"/>
    <path id="svg_14" fill="#ccc" d="m476.50885,396.97316c-3.97705,1.03705 -7.19592,3.95279 -8.62012,7.80817c-0.50397,1.08948 -0.49072,2.34793 0.03607,3.42654c0.4118,0.77005 1.32892,1.11777 2.14777,0.8143c0.82245,-0.44318 1.47845,-1.14185 1.86902,-1.99057c0.573,-1.08914 1.06549,-2.21878 1.47351,-3.37985c0.66815,-1.75208 2.09351,-4.67673 0.05847,-6.04651c-1.71155,-1.15201 -3.9776,-0.7045 -5.90344,-0.78351c-2.08112,-0.08536 -4.39417,-0.88235 -5.13348,-3.03937c-0.71899,-2.09769 0.96667,-4.07077 2.78381,-4.86847c2.21844,-0.9198 4.74878,-0.67877 6.75366,0.64334c1.95148,1.35275 3.34503,3.3685 3.9212,5.67206c0.08899,0.37198 -0.14038,0.7457 -0.51239,0.83472c-0.35419,0.08472 -0.71344,-0.11926 -0.82214,-0.46683c-0.51025,-2.13724 -1.85596,-3.98071 -3.73602,-5.11801c-1.86792,-1.07773 -4.18872,-0.98706 -5.96686,0.23312c-0.93304,0.58066 -1.36639,1.71072 -1.06091,2.76636c0.46881,0.93674 1.3515,1.59796 2.38226,1.78455c2.19574,0.53091 4.49237,-0.15613 6.68103,0.54514c2.03723,0.52206 3.33582,2.51675 2.98877,4.591c-0.22772,1.2446 -0.59662,2.4592 -1.09943,3.62027c-0.42719,1.19376 -0.92651,2.36041 -1.4953,3.49356c-0.8689,1.64224 -2.43567,3.42001 -4.5033,2.93839c-2.35651,-0.54886 -2.91602,-3.3002 -2.41101,-5.3237c1.36646,-4.66922 5.08997,-8.27432 9.8009,-9.48926c0.37207,-0.08868 0.74561,0.14102 0.83429,0.51309c0.08435,0.35379 -0.11932,0.71252 -0.46637,0.82141l0,0.00006l0.00001,0z"/>
    <path id="svg_15" fill="#3f3d56" d="m580.54724,478.62214l-164,0c-3.86414,-0.00452 -6.99548,-3.13586 -7,-7l0,-223c0.00433,-3.8642 3.1358,-6.99567 7,-7l164,0c3.8642,0.00433 6.99567,3.1358 7,7l0,223c-0.00452,3.86414 -3.13586,6.99548 -7,7zm-164,-235c-2.76007,0.00323 -4.99677,2.23993 -5,5l0,223c0.00323,2.76007 2.23993,4.99677 5,5l164,0c2.76007,-0.00323 4.99677,-2.23993 5,-5l0,-223c-0.00323,-2.76007 -2.23993,-4.99677 -5,-5l-164,0z"/>
    <path id="svg_46" fill="#6c63ff" d="m687,374.62214l-53,0c-7.17969,0 -13,-5.82031 -13,-13s5.82031,-13 13,-13l53,0c7.17969,0 13,5.82031 13,13s-5.82031,13 -13,13z"/>
    <path id="svg_53" fill="#3f3d56" d="m511.60974,362.69395c-2.7663,0.00638 -5.01398,-2.23096 -5.02039,-4.99725s2.23096,-5.01401 4.99725,-5.02039s5.01398,2.23096 5.02039,4.99725c0.00446,1.91803 -1.08685,3.67017 -2.81024,4.51208c-0.68109,0.33289 -1.42889,0.50668 -2.18701,0.5083l0,0.00001zm-0.00684,-8.00439c-1.65814,-0.00006 -3.00238,1.34406 -3.00244,3.0022c-0.00012,1.65811 1.34406,3.00238 3.00214,3.00244c1.65814,0.00009 3.00244,-1.34406 3.0025,-3.00217c0,-0.45584 -0.10376,-0.9057 -0.30347,-1.31546l0,-0.00052c-0.50409,-1.03107 -1.55103,-1.68533 -2.69873,-1.68652l0,0.00003z"/>
   </g>
  </g>
  <g id="svg_51">
   <path id="svg_48" fill="#e6e6e6" d="m106,198.62214l-53,0c-7.17969,0 -13,-5.82031 -13,-13s5.82031,-13 13,-13l53,0c7.17969,0 13,5.82031 13,13s-5.82031,13 -13,13z"/>
   <rect transform="rotate(-89.1724 -2.30919 375.307)" id="svg_49" fill="#e6e6e6" height="102.43012" width="2.00021" y="512.91648" x="185.91978"/>
   <path id="svg_50" fill="#e6e6e6" d="m244.73572,194.14167c-1.91418,0.00146 -3.66171,-1.08844 -4.50244,-2.80811l0,0c-1.21155,-2.48257 -0.18118,-5.47726 2.30139,-6.68881s5.47723,-0.18121 6.68881,2.30136c1.21155,2.48257 0.18118,5.47726 -2.30139,6.68884c-0.681,0.33234 -1.42859,0.50562 -2.18637,0.50671l0,0.00001zm-2.70459,-3.68506c0.72629,1.48862 2.52185,2.10663 4.0105,1.38031c1.48862,-0.72629 2.10663,-2.52185 1.38031,-4.01047c-0.72629,-1.48865 -2.52185,-2.10663 -4.0105,-1.38034c-0.71457,0.34866 -1.26144,0.96677 -1.52045,1.71851c-0.25888,0.75238 -0.20847,1.57675 0.14014,2.29199z"/>
  </g>
  <g id="svg_47">
   <path id="svg_37" fill="#e6e6e6" d="m100.19356,144.42873l-53,0c-7.17969,0 -13,-5.82031 -13,-13s5.82031,-13 13,-13l53,0c7.17969,0 13,5.82031 13,13s-5.82031,13 -13,13z"/>
   <rect transform="rotate(-89.1724 -8.11563 321.114)" id="svg_38" fill="#e6e6e6" height="102.43012" width="2.00021" y="458.72307" x="180.11334"/>
   <path id="svg_39" fill="#e6e6e6" d="m238.92928,139.94826c-1.91418,0.00146 -3.66171,-1.08844 -4.50244,-2.80811l0,0c-1.21155,-2.48257 -0.18118,-5.47726 2.30139,-6.68881s5.47723,-0.18121 6.68881,2.30136c1.21155,2.48257 0.18118,5.47726 -2.30139,6.68884c-0.681,0.33234 -1.42859,0.50562 -2.18637,0.50671l0,0.00001zm-2.70459,-3.68506c0.72629,1.48862 2.52185,2.10663 4.0105,1.38031c1.48862,-0.72629 2.10663,-2.52185 1.38031,-4.01047c-0.72629,-1.48865 -2.52185,-2.10663 -4.0105,-1.38034c-0.71457,0.34866 -1.26144,0.96677 -1.52045,1.71851c-0.25888,0.75238 -0.20847,1.57675 0.14014,2.29199z"/>
  </g>
  <g id="svg_65">
   <rect transform="rotate(-89.1724 316.318 875.202)" id="svg_61" fill="#3f3d56" height="102.42963" width="2.00018" y="1055.99565" x="881.42171"/>
   <g id="svg_64">
    <path id="svg_62" fill="#6c63ff" d="m682.75,326.37214l-53,0c-7.17969,0 -13,-5.82031 -13,-13s5.82031,-13 13,-13l53,0c7.17969,0 13,5.82031 13,13s-5.82031,13 -13,13z"/>
    <path stroke="null" id="svg_63" fill="#3f3d56" d="m501.98474,316.56895c-2.7663,0.00638 -5.01398,-2.23096 -5.02039,-4.99725s2.23096,-5.01401 4.99725,-5.02039s5.01398,2.23096 5.02039,4.99725c0.00446,1.91803 -1.08685,3.67017 -2.81024,4.51208c-0.68109,0.33289 -1.42889,0.50668 -2.18701,0.5083l0,0.00001zm-0.00684,-8.00439c-1.65814,-0.00006 -3.00238,1.34406 -3.00244,3.0022c-0.00012,1.65811 1.34406,3.00238 3.00214,3.00244c1.65814,0.00009 3.00244,-1.34406 3.0025,-3.00217c0,-0.45584 -0.10376,-0.9057 -0.30347,-1.31546l0,-0.00052c-0.50409,-1.03107 -1.55103,-1.68533 -2.69873,-1.68652l0,0.00003z"/>
   </g>
  </g>
  <g id="svg_55">
   <rect transform="rotate(-89.1724 323.818 1008.95)" id="svg_40" fill="#3f3d56" height="102.42963" width="2.00018" y="1189.74565" x="888.92171"/>
   <g id="svg_54">
    <path id="svg_17" fill="#6c63ff" d="m690.25,460.12214l-53,0c-7.17969,0 -13,-5.82031 -13,-13s5.82031,-13 13,-13l53,0c7.17969,0 13,5.82031 13,13s-5.82031,13 -13,13z"/>
    <path stroke="null" id="svg_41" fill="#3f3d56" d="m509.48474,450.31895c-2.7663,0.00638 -5.01398,-2.23096 -5.02039,-4.99725s2.23096,-5.01401 4.99725,-5.02039s5.01398,2.23096 5.02039,4.99725c0.00446,1.91803 -1.08685,3.67017 -2.81024,4.51208c-0.68109,0.33289 -1.42889,0.50668 -2.18701,0.5083l0,0.00001zm-0.00684,-8.00439c-1.65814,-0.00006 -3.00238,1.34406 -3.00244,3.0022c-0.00012,1.65811 1.34406,3.00238 3.00214,3.00244c1.65814,0.00009 3.00244,-1.34406 3.0025,-3.00217c0,-0.45584 -0.10376,-0.9057 -0.30347,-1.31546l0,-0.00052c-0.50409,-1.03107 -1.55103,-1.68533 -2.69873,-1.68652l0,0.00003z"/>
   </g>
  </g>
 </g>

</svg>